<?xml version="1.0" encoding="utf-8"?>
<!DOCTYPE svg PUBLIC "-//W3C//DTD SVG 1.1//EN" "http://www.w3.org/Graphics/SVG/1.1/DTD/svg11.dtd">
<svg version="1.1" xmlns="http://www.w3.org/2000/svg" xmlns:xlink="http://www.w3.org/1999/xlink" width="28" height="28" viewBox="0 0 28 28" data-code="62142" data-tags="user-circle-o">
<g fill="#444" transform="scale(0.02734375 0.02734375)">
<path d="M512 0c282.857 0 512 229.143 512 512 0 281.143-228 512-512 512-283.429 0-512-230.286-512-512 0-282.857 229.143-512 512-512zM865.714 772c53.143-73.143 85.143-162.857 85.143-260 0-241.714-197.143-438.857-438.857-438.857s-438.857 197.143-438.857 438.857c0 97.143 32 186.857 85.143 260 20.571-102.286 70.286-186.857 174.857-186.857 46.286 45.143 109.143 73.143 178.857 73.143s132.571-28 178.857-73.143c104.571 0 154.286 84.571 174.857 186.857zM731.429 402.286c0-121.143-98.286-219.429-219.429-219.429s-219.429 98.286-219.429 219.429 98.286 219.429 219.429 219.429 219.429-98.286 219.429-219.429z" />
</g></svg>